<svg width="11" height="11" viewBox="0 0 11 11" fill="none" xmlns="http://www.w3.org/2000/svg">
<path fill-rule="evenodd" clip-rule="evenodd" d="M10.2037 0.552907C9.67067 0.0199119 8.80651 0.0199135 8.27352 0.552908L5.37818 3.44825L2.48295 0.553026C1.94996 0.0200312 1.0858 0.020031 0.55281 0.553025C0.0198148 1.08602 0.0198156 1.95018 0.55281 2.48317L3.44803 5.37839L0.552946 8.27348C0.0199513 8.80648 0.019951 9.67063 0.552946 10.2036C1.08594 10.7366 1.9501 10.7366 2.48309 10.2036L5.37818 7.30854L8.27338 10.2037C8.80638 10.7367 9.67053 10.7367 10.2035 10.2037C10.7365 9.67075 10.7365 8.80659 10.2035 8.2736L7.30832 5.37839L10.2037 2.48305C10.7367 1.95006 10.7367 1.0859 10.2037 0.552907Z" fill="#F96F7F"/>
</svg>
