<svg width="29" height="40" viewBox="0 0 29 40" fill="none" xmlns="http://www.w3.org/2000/svg">
<path d="M14.5 0C6.50852 0 2.18191e-06 6.58333 2.18191e-06 14.6667V31.8808C-0.00155179 34.0159 0.827009 36.0659 2.30682 37.5883C3.03258 38.3504 3.90271 38.9566 4.86525 39.371C5.82779 39.7854 6.86301 39.9993 7.90909 40C10.9459 40 13.4438 38.6983 15.3338 36.1317C15.7028 35.6317 16.1205 34.9033 16.6042 34.0608C17.8663 31.8633 19.594 28.855 21.8085 27.3325C23.9316 25.8733 25.6996 24.0375 26.9164 22.0225C28.3005 19.745 29 17.27 29 14.6667C29 6.58333 22.4956 0 14.5 0ZM22.4091 15.3333C22.0595 15.3333 21.7242 15.1929 21.477 14.9428C21.2298 14.6928 21.0909 14.3536 21.0909 14C21.0909 10.6917 18.1341 8 14.5 8C10.8659 8 7.90909 10.6917 7.90909 14V16.535C10.1492 15.8817 12.7205 15.975 13.2049 16C13.9283 16.007 14.6359 16.2145 15.2508 16.6001C15.8656 16.9856 16.3642 17.5343 16.6921 18.1866C17.02 18.8388 17.1648 19.5695 17.1107 20.2992C17.0565 21.0289 16.8055 21.7296 16.385 22.325C16.3603 22.3592 16.3347 22.3925 16.3067 22.425C14.9432 24.0083 13.3408 26.215 13.1382 27.0083C13.0434 27.3437 12.8225 27.6281 12.5229 27.8006C12.2233 27.9732 11.8688 28.0201 11.5353 27.9314C11.2019 27.8427 10.9161 27.6253 10.7392 27.326C10.5623 27.0266 10.5085 26.6691 10.5891 26.33C11.0431 24.585 13.6316 21.48 14.2685 20.7342C14.3996 20.5331 14.4744 20.2998 14.485 20.0592C14.4956 19.8186 14.4415 19.5795 14.3286 19.3675C14.2156 19.1554 14.0479 18.9783 13.8434 18.8549C13.6389 18.7315 13.4051 18.6665 13.167 18.6667H13.0945C11.7269 18.5925 9.31378 18.7333 7.90909 19.3592V24C7.90909 24.3536 7.77021 24.6928 7.52301 24.9428C7.2758 25.1929 6.94051 25.3333 6.59091 25.3333C6.24131 25.3333 5.90602 25.1929 5.65882 24.9428C5.41161 24.6928 5.27273 24.3536 5.27273 24V14C5.27273 9.22083 9.41182 5.33333 14.5 5.33333C19.5882 5.33333 23.7273 9.22083 23.7273 14C23.7273 14.3536 23.5884 14.6928 23.3412 14.9428C23.094 15.1929 22.7587 15.3333 22.4091 15.3333Z" fill="#F96F7F"/>
</svg>
