<svg width="14" height="9" viewBox="0 0 14 9" fill="none" xmlns="http://www.w3.org/2000/svg">
<path d="M13.2497 7.875V1.125C13.2497 0.5025 12.7472 0 12.1247 0H1.61719C0.994687 0 0.492188 0.5025 0.492188 1.125V7.875C0.492188 8.4975 0.994687 9 1.61719 9H12.1247C12.7472 9 13.2497 8.4975 13.2497 7.875ZM12.2672 1.0425C12.5147 1.29 12.3797 1.545 12.2447 1.6725L9.19969 4.4625L12.1247 7.5075C12.2147 7.6125 12.2747 7.7775 12.1697 7.89C12.0722 8.01 11.8472 8.0025 11.7497 7.9275L8.47219 5.13L6.86719 6.5925L5.26969 5.13L1.99219 7.9275C1.89469 8.0025 1.66969 8.01 1.57219 7.89C1.46719 7.7775 1.52719 7.6125 1.61719 7.5075L4.54219 4.4625L1.49719 1.6725C1.36219 1.545 1.22719 1.29 1.47469 1.0425C1.72219 0.795 1.97719 0.915 2.18719 1.095L6.86719 4.875L11.5547 1.095C11.7647 0.915 12.0197 0.795 12.2672 1.0425Z" fill="#A7A7A7"/>
</svg>
