<svg width="22" height="27" viewBox="0 0 22 27" fill="none" xmlns="http://www.w3.org/2000/svg">
<path d="M17.7898 12.8907L11.3539 6.45946C11.3076 6.41303 11.2525 6.37619 11.1919 6.35106C11.1313 6.32593 11.0664 6.31299 11.0008 6.31299C10.9352 6.31299 10.8702 6.32593 10.8096 6.35106C10.749 6.37619 10.694 6.41303 10.6477 6.45946L4.21172 12.8907C4.02422 13.0782 3.91797 13.3329 3.91797 13.5985C3.91797 14.1501 4.36641 14.5985 4.91797 14.5985H5.59609V19.1876C5.59609 19.4641 5.81953 19.6876 6.09609 19.6876H10.0008V16.1876H11.7508V19.6876H15.9055C16.182 19.6876 16.4055 19.4641 16.4055 19.1876V14.5985H17.0836C17.3492 14.5985 17.6039 14.4938 17.7914 14.3048C18.1805 13.9141 18.1805 13.2813 17.7898 12.8907Z" fill="#B9B9B9"/>
</svg>
