<svg width="10" height="10" viewBox="0 0 10 10" fill="none" xmlns="http://www.w3.org/2000/svg">
<path d="M9.99523 7.89118C10.0164 8.05352 9.96694 8.19467 9.84702 8.31463L8.43904 9.71197C8.37552 9.78255 8.29261 9.84259 8.19028 9.89194C8.08795 9.94136 7.98739 9.97312 7.88862 9.98722C7.88156 9.98722 7.86034 9.98903 7.82504 9.99256C7.7898 9.99607 7.74393 9.99787 7.68747 9.99787C7.55334 9.99787 7.3363 9.97493 7.03636 9.92904C6.73641 9.88315 6.36944 9.77021 5.93543 9.59028C5.50133 9.41031 5.00908 9.14033 4.45861 8.78043C3.90814 8.42055 3.32235 7.92649 2.70129 7.29835C2.20726 6.81138 1.79792 6.34558 1.47328 5.90098C1.14863 5.45634 0.887502 5.04523 0.689891 4.66766C0.492263 4.29008 0.344055 3.94779 0.245249 3.64079C0.146444 3.33378 0.0793972 3.06913 0.0441096 2.84681C0.00882191 2.6245 -0.00529315 2.44983 0.00176438 2.32279C0.00882191 2.19576 0.0123507 2.12518 0.0123507 2.11107C0.0264657 2.01226 0.0582246 1.91169 0.107627 1.80936C0.15703 1.70702 0.217019 1.6241 0.287594 1.56058L1.69557 0.152603C1.79438 0.0537972 1.9073 0.00439453 2.03433 0.00439453C2.12608 0.00439453 2.20724 0.0308603 2.27782 0.0837917C2.34839 0.136723 2.40838 0.202005 2.45778 0.279638L3.59052 2.42866C3.65404 2.54158 3.67168 2.66508 3.64345 2.79918C3.61522 2.93327 3.55523 3.04619 3.46348 3.13794L2.94475 3.65667C2.93064 3.67078 2.91829 3.69372 2.9077 3.72548C2.89712 3.75723 2.89182 3.7837 2.89182 3.80487C2.92005 3.95308 2.98357 4.12246 3.08238 4.31301C3.16707 4.4824 3.29763 4.68883 3.47407 4.93231C3.65051 5.1758 3.90105 5.45632 4.2257 5.77391C4.54328 6.09859 4.82559 6.35086 5.0726 6.53086C5.31956 6.71076 5.52606 6.84314 5.69192 6.92783C5.85777 7.01252 5.9848 7.06369 6.073 7.08128L6.2053 7.10776C6.21941 7.10776 6.2424 7.10245 6.27413 7.09188C6.30588 7.08128 6.32882 7.06895 6.34295 7.05481L6.94636 6.44081C7.07346 6.32791 7.2216 6.27144 7.391 6.27144C7.51101 6.27144 7.60623 6.2926 7.67681 6.33496H7.68738L9.73052 7.5418C9.87878 7.63362 9.96698 7.75003 9.99523 7.89118Z" fill="#F96F7F"/>
</svg>
