<svg width="26" height="26" viewBox="0 0 26 26" fill="none" xmlns="http://www.w3.org/2000/svg">
<g filter="url(#filter0_d_1838_2100)">
<path d="M18.9924 15.6242C19.0263 15.884 18.9471 16.1098 18.7552 16.3018L16.5025 18.5375C16.4008 18.6504 16.2682 18.7465 16.1044 18.8254C15.9407 18.9045 15.7798 18.9553 15.6218 18.9779C15.6105 18.9779 15.5765 18.9808 15.5201 18.9864C15.4637 18.9921 15.3903 18.9949 15.2999 18.9949C15.0853 18.9949 14.7381 18.9582 14.2582 18.8848C13.7783 18.8114 13.1911 18.6307 12.4967 18.3428C11.8021 18.0548 11.0145 17.6229 10.1338 17.047C9.25303 16.4712 8.31576 15.6807 7.32206 14.6757C6.53162 13.8966 5.87668 13.1513 5.35724 12.4399C4.83781 11.7285 4.42 11.0707 4.10383 10.4666C3.78762 9.86247 3.55049 9.3148 3.3924 8.8236C3.23431 8.33239 3.12704 7.90894 3.07058 7.55324C3.01412 7.19754 2.99153 6.91807 3.00282 6.71481C3.01412 6.51155 3.01976 6.39863 3.01976 6.37605C3.04235 6.21796 3.09316 6.05705 3.1722 5.89331C3.25125 5.72958 3.34723 5.5969 3.46015 5.49527L5.71291 3.2425C5.871 3.08442 6.05168 3.00537 6.25493 3.00537C6.40173 3.00537 6.53159 3.04772 6.64451 3.13241C6.75743 3.2171 6.85341 3.32155 6.93246 3.44576L8.74483 6.88419C8.84646 7.06486 8.87469 7.26247 8.82952 7.47702C8.78435 7.69157 8.68837 7.87224 8.54157 8.01904L7.71161 8.84901C7.68902 8.87159 7.66926 8.90829 7.65232 8.9591C7.63539 9.00992 7.62692 9.05226 7.62692 9.08614C7.67208 9.32327 7.77371 9.59428 7.9318 9.89917C8.06731 10.1702 8.27621 10.5005 8.55851 10.89C8.84081 11.2796 9.24168 11.7284 9.76111 12.2366C10.2693 12.7561 10.7209 13.1597 11.1162 13.4477C11.5113 13.7356 11.8417 13.9474 12.1071 14.0829C12.3724 14.2184 12.5757 14.3002 12.7168 14.3284L12.9285 14.3708C12.9511 14.3708 12.9878 14.3623 13.0386 14.3454C13.0894 14.3284 13.1261 14.3087 13.1487 14.286L14.1142 13.3036C14.3175 13.123 14.5546 13.0327 14.8256 13.0327C15.0176 13.0327 15.17 13.0665 15.2829 13.1343H15.2998L18.5688 15.0652C18.806 15.2121 18.9472 15.3984 18.9924 15.6242Z" fill="white"/>
</g>
<defs>
<filter id="filter0_d_1838_2100" x="0" y="0" width="26" height="26" filterUnits="userSpaceOnUse" color-interpolation-filters="sRGB">
<feFlood flood-opacity="0" result="BackgroundImageFix"/>
<feColorMatrix in="SourceAlpha" type="matrix" values="0 0 0 0 0 0 0 0 0 0 0 0 0 0 0 0 0 0 127 0" result="hardAlpha"/>
<feOffset dx="2" dy="2"/>
<feGaussianBlur stdDeviation="2.5"/>
<feColorMatrix type="matrix" values="0 0 0 0 0 0 0 0 0 0 0 0 0 0 0 0 0 0 0.15 0"/>
<feBlend mode="normal" in2="BackgroundImageFix" result="effect1_dropShadow_1838_2100"/>
<feBlend mode="normal" in="SourceGraphic" in2="effect1_dropShadow_1838_2100" result="shape"/>
</filter>
</defs>
</svg>
