<svg width="52" height="50" viewBox="0 0 52 50" fill="none" xmlns="http://www.w3.org/2000/svg">
<path d="M26 0C22.4545 0 19.6847 1.2962 17.6903 3.88859C15.696 6.48098 14.6989 9.79484 14.6989 13.8302C14.6742 18.8438 16.2992 22.8179 19.5739 25.7527C19.9924 26.144 20.1402 26.6454 20.017 27.2568L19.1676 29.0177C18.8968 29.6046 18.4967 30.0632 17.9673 30.3933C17.438 30.7235 16.3239 31.1943 14.625 31.8057C14.5511 31.8302 12.9938 32.3315 9.95312 33.3098C6.91241 34.288 5.29356 34.8261 5.09659 34.9239C3.02841 35.7799 1.67424 36.6726 1.03409 37.6019C0.344697 39.1427 0 43.0435 0 49.3043H52C52 43.0435 51.6553 39.1427 50.9659 37.6019C50.3258 36.6726 48.9716 35.7799 46.9034 34.9239C46.7064 34.8261 45.0876 34.288 42.0469 33.3098C39.0062 32.3315 37.4489 31.8302 37.375 31.8057C35.6761 31.1943 34.562 30.7235 34.0327 30.3933C33.5033 30.0632 33.1032 29.6046 32.8324 29.0177L31.983 27.2568C31.8598 26.6454 32.0076 26.144 32.4261 25.7527C35.7008 22.8179 37.3258 18.8438 37.3011 13.8302C37.3011 9.79484 36.304 6.48098 34.3097 3.88859C32.3153 1.2962 29.5455 0 26 0Z" fill="#B9B9B9"/>
</svg>
